# xmcd
# 
# Track frame offsets:
#     150
#     13911
#     25451
#     37648
#     58784
#     71698
#     84767
#     98806
#     115199
#     127927
#     143097
#     155477
#     170327
#     183056
#     193432
#     204453
#     217072
#     232138
#     243913
# 
# Disc length: 3382
# 
# Revision: 1
# Processed by: cddbd v1.5.2PL0 Copyright (c) Steve Scherf et al.
# Submitted via: fre:ac v1.0.31
# 
DISCID=060d3413
DTITLE=Readers Digest - From Sea to Shining Sea Disc 3
DYEAR=2004
DGENRE=Patriotic
TTITLE0=Big Bad John
TTITLE1=The Battle of New Orleans
TTITLE2=Casey Jones (The Brave Engineer)
TTITLE3=El Paso
TTITLE4=Remember The Alamo
TTITLE5=The Ballad of Davy Crocket
TTITLE6=Riders In The Sky (A Cowboy Legend)
TTITLE7=The Devil Went Down to Georgia
TTITLE8=North To Alaska
TTITLE9=Shenandoah
TTITLE10=Where Have All the Flowers Gone
TTITLE11=Take Me Home, Country Roads
TTITLE12=The Streets of Laredo
TTITLE13=Red River Valley
TTITLE14=You Are My Sunshine
TTITLE15=Home On The Range
TTITLE16=San Antonio Rose
TTITLE17=Wabash Cannonball
TTITLE18=Rock Island Line
EXTD=Reader Digest Music 3 of 4
EXTT0=
EXTT1=
EXTT2=
EXTT3=
EXTT4=
EXTT5=
EXTT6=
EXTT7=
EXTT8=
EXTT9=
EXTT10=
EXTT11=
EXTT12=
EXTT13=
EXTT14=
EXTT15=
EXTT16=
EXTT17=
EXTT18=
PLAYORDER=
